<svg width="120" height="105" viewBox="0 0 120 105" fill="none" xmlns="http://www.w3.org/2000/svg">
<g clip-path="url(#clip0)">
<path d="M5.34058e-05 103.698L85.9017 105L120 98.9255H66.7678L5.34058e-05 103.698Z" fill="#E6E6E6"/>
<path d="M21.0798 27.624C13.4906 27.624 7.33838 21.4401 7.33838 13.812C7.33838 6.18383 13.4906 0 21.0798 0C28.6689 0 34.8212 6.18383 34.8212 13.812C34.8212 21.4401 28.6689 27.624 21.0798 27.624Z" fill="#FF6584"/>
<path d="M95.691 99.6476C95.691 99.6476 95.49 95.4142 91.3695 95.9063L95.691 99.6476Z" fill="#3F3D56"/>
<path d="M96.8553 95.6189C95.7163 95.6189 94.793 94.6909 94.793 93.546C94.793 92.4012 95.7163 91.4731 96.8553 91.4731C97.9943 91.4731 98.9176 92.4012 98.9176 93.546C98.9176 94.6909 97.9943 95.6189 96.8553 95.6189Z" fill="#7D53DE"/>
<path d="M96.6087 97.0366H97.1909V101.133H96.6087V97.0366Z" fill="#3F3D56"/>
<path d="M27.7755 100.371C27.7755 100.371 27.5745 96.1373 23.4539 96.6294L27.7755 100.371Z" fill="#3F3D56"/>
<path d="M28.9398 96.3421C27.8008 96.3421 26.8775 95.414 26.8775 94.2692C26.8775 93.1244 27.8008 92.1963 28.9398 92.1963C30.0787 92.1963 31.0021 93.1244 31.0021 94.2692C31.0021 95.414 30.0787 96.3421 28.9398 96.3421Z" fill="#7D53DE"/>
<path d="M28.6931 97.7598H29.2753V101.856H28.6931V97.7598Z" fill="#3F3D56"/>
<path d="M17.847 101.094C17.847 101.094 17.646 96.8605 13.5255 97.3525L17.847 101.094Z" fill="#3F3D56"/>
<path d="M19.0114 97.0652C17.8724 97.0652 16.9491 96.1372 16.9491 94.9923C16.9491 93.8475 17.8724 92.9194 19.0114 92.9194C20.1503 92.9194 21.0737 93.8475 21.0737 94.9923C21.0737 96.1372 20.1503 97.0652 19.0114 97.0652Z" fill="#7D53DE"/>
<path d="M18.7648 98.4829H19.3469V102.579H18.7648V98.4829Z" fill="#3F3D56"/>
<path d="M79.4315 97.6228C79.4315 97.6228 79.2305 93.3894 75.11 93.8815L79.4315 97.6228Z" fill="#3F3D56"/>
<path d="M80.5958 93.5942C79.4569 93.5942 78.5335 92.6661 78.5335 91.5213C78.5335 90.3764 79.4569 89.4484 80.5958 89.4484C81.7348 89.4484 82.6581 90.3764 82.6581 91.5213C82.6581 92.6661 81.7348 93.5942 80.5958 93.5942Z" fill="#7D53DE"/>
<path d="M80.3493 95.0118H80.9314V99.1077H80.3493V95.0118Z" fill="#3F3D56"/>
<path d="M110.08 98.3459C110.08 98.3459 109.879 94.1126 105.758 94.6046L110.08 98.3459Z" fill="#3F3D56"/>
<path d="M111.244 94.3173C110.105 94.3173 109.182 93.3892 109.182 92.2444C109.182 91.0996 110.105 90.1715 111.244 90.1715C112.383 90.1715 113.307 91.0996 113.307 92.2444C113.307 93.3892 112.383 94.3173 111.244 94.3173Z" fill="#7D53DE"/>
<path d="M110.998 95.735H111.58V99.8309H110.998V95.735Z" fill="#3F3D56"/>
<path d="M60.2175 90.9896C47.8082 90.9896 37.7485 80.8782 37.7485 68.4051C37.7485 55.9321 47.8082 45.8207 60.2175 45.8207C72.6268 45.8207 82.6865 55.9321 82.6865 68.4051C82.6865 80.8782 72.6268 90.9896 60.2175 90.9896Z" fill="#3F3D56"/>
<path d="M74.3632 70.2181C73.8051 69.5466 73.1072 69.0064 72.3187 68.6358C71.5302 68.2651 70.6704 68.073 69.7999 68.073C68.9294 68.073 68.0696 68.2651 67.2811 68.6358C66.4926 69.0064 65.7947 69.5466 65.2366 70.2181C64.2818 69.3018 63.6218 68.1191 63.3417 66.8224C63.0617 65.5257 63.1745 64.1745 63.6655 62.9428C64.1565 61.7111 65.0032 60.6554 66.0966 59.9118C67.1899 59.1683 68.4798 58.7709 69.7999 58.7709C71.12 58.7709 72.4099 59.1683 73.5032 59.9118C74.5966 60.6554 75.4433 61.7111 75.9343 62.9428C76.4253 64.1745 76.5381 65.5257 76.258 66.8224C75.978 68.1191 75.318 69.3018 74.3632 70.2181Z" fill="white"/>
<path d="M56.5202 70.2181C55.9621 69.5466 55.2642 69.0064 54.4757 68.6358C53.6872 68.2651 52.8274 68.073 51.9569 68.073C51.0864 68.073 50.2266 68.2651 49.4381 68.6358C48.6496 69.0064 47.9517 69.5466 47.3936 70.2181C46.4388 69.3018 45.7788 68.1192 45.4988 66.8225C45.2187 65.5258 45.3315 64.1745 45.8225 62.9428C46.3135 61.7111 47.1602 60.6554 48.2536 59.9118C49.3469 59.1683 50.6368 58.7709 51.9569 58.7709C53.277 58.7709 54.5669 59.1683 55.6602 59.9118C56.7536 60.6554 57.6003 61.7111 58.0913 62.9428C58.5823 64.1745 58.6951 65.5258 58.415 66.8225C58.135 68.1192 57.475 69.3018 56.5202 70.2181Z" fill="white"/>
<path d="M72.0543 65.4365C70.7988 65.4365 69.781 64.4135 69.781 63.1515C69.781 61.8896 70.7988 60.8666 72.0543 60.8666C73.3098 60.8666 74.3276 61.8896 74.3276 63.1515C74.3276 64.4135 73.3098 65.4365 72.0543 65.4365Z" fill="#3F3D56"/>
<path d="M54.2119 65.4365C52.9564 65.4365 51.9386 64.4135 51.9386 63.1515C51.9386 61.8896 52.9564 60.8666 54.2119 60.8666C55.4674 60.8666 56.4852 61.8896 56.4852 63.1515C56.4852 64.4135 55.4674 65.4365 54.2119 65.4365Z" fill="#3F3D56"/>
<path d="M76.4084 76.7083C74.9485 76.7083 73.765 75.5187 73.765 74.0513C73.765 72.5839 74.9485 71.3943 76.4084 71.3943C77.8683 71.3943 79.0518 72.5839 79.0518 74.0513C79.0518 75.5187 77.8683 76.7083 76.4084 76.7083Z" fill="#FF6584"/>
<path d="M46.0091 76.7083C44.5492 76.7083 43.3657 75.5187 43.3657 74.0513C43.3657 72.5839 44.5492 71.3943 46.0091 71.3943C47.469 71.3943 48.6525 72.5839 48.6525 74.0513C48.6525 75.5187 47.469 76.7083 46.0091 76.7083Z" fill="#FF6584"/>
<path d="M61.2089 68.7372L63.1914 77.3725L59.8872 74.0513L61.2089 68.7372Z" fill="#FF6584"/>
<path d="M51.0219 101.95L53.2727 100.051L53.2203 101.95H53.9194L53.9752 99.942L57.0142 101.95H58.2864L53.9979 99.1165L54.164 93.1671L54.2881 88.674L53.5908 88.6547L53.4649 93.1671L53.299 99.1112L49.935 101.95H51.0219Z" fill="#3F3D56"/>
<path d="M61.5963 101.95L63.8472 100.051L63.7947 101.95H64.4919L64.5479 99.942L67.5869 101.95H68.8591L64.5724 99.1165L64.7383 93.1671L64.8624 88.674L64.1635 88.6547L64.0376 93.1671L63.8734 99.1112L60.5093 101.95H61.5963Z" fill="#3F3D56"/>
<path d="M59.8871 44.16C60.5036 44.16 61.0475 44.6414 61.4111 45.3808C61.7316 44.269 62.405 43.4958 63.1914 43.4958C63.2448 43.5011 63.2978 43.5101 63.3501 43.5226C63.6523 42.3356 64.3549 41.5031 65.1739 41.5031C66.2689 41.5031 67.1565 42.99 67.1565 44.8243C67.1565 46.6586 66.2689 48.1455 65.1739 48.1455C65.1205 48.1402 65.0675 48.1312 65.0152 48.1187C64.7129 49.3058 64.0104 50.1383 63.1914 50.1383C62.5748 50.1383 62.031 49.6569 61.6673 48.9176C61.3468 50.0293 60.6735 50.8025 59.8871 50.8025C58.7921 50.8025 57.9045 49.3155 57.9045 47.4813C57.9045 45.647 58.7921 44.16 59.8871 44.16Z" fill="#3F3D56"/>
<path d="M81.3076 76.9636C82.1755 76.9636 83.0348 76.7918 83.8366 76.458C84.6384 76.1242 85.3669 75.6349 85.9806 75.0181C86.5942 74.4013 87.081 73.669 87.4131 72.8631C87.7452 72.0572 87.9162 71.1934 87.9162 70.3211V66.9999C87.9162 65.2382 87.2199 63.5486 85.9806 62.3029C84.7412 61.0572 83.0603 60.3574 81.3076 60.3574V76.9636Z" fill="#7D53DE"/>
<path d="M39.1274 60.3574C38.2596 60.3574 37.4002 60.5292 36.5985 60.863C35.7967 61.1969 35.0682 61.6861 34.4545 62.3029C33.8408 62.9198 33.3541 63.652 33.0219 64.4579C32.6898 65.2638 32.5189 66.1276 32.5189 66.9999V70.3211C32.5189 71.1934 32.6898 72.0572 33.0219 72.8631C33.3541 73.669 33.8408 74.4013 34.4545 75.0181C35.0682 75.6349 35.7967 76.1242 36.5985 76.458C37.4002 76.7918 38.2596 76.9636 39.1274 76.9636V60.3574H39.1274Z" fill="#7D53DE"/>
<path d="M35.6645 67.5219H36.7131C36.7131 54.1559 47.5315 43.2818 60.8292 43.2818C74.1269 43.2818 84.9454 54.1559 84.9454 67.5219H85.9939C85.9939 53.5747 74.7051 42.2279 60.8292 42.2279C46.9533 42.2279 35.6645 53.5747 35.6645 67.5219Z" fill="#7D53DE"/>
<path d="M96.812 47.2092L96.8118 47.2088L97.3044 47.0026L99.3828 46.1194L100.128 45.8029L100.185 45.9479L101.186 48.4878L98.3693 49.686L98.3545 49.6995L98.5443 50.1493C98.5703 50.1904 98.5924 50.2339 98.6105 50.2791C98.7435 50.6165 98.4924 50.9522 98.255 51.0466C98.0176 51.1411 97.7174 50.9442 97.5844 50.6068C97.4533 50.274 97.5814 49.8512 97.8128 49.749L97.8126 49.7486L98.3052 49.5424L99.9903 48.884L99.0275 46.4404L99.1702 46.3836L100.133 48.8281L100.342 48.7466L99.3748 46.2926L99.3493 46.3035L97.3685 47.1462L97.3537 47.1596L97.5435 47.6094C97.5695 47.6506 97.5917 47.694 97.6097 47.7392C97.7427 48.0767 97.4916 48.4123 97.2542 48.5068C97.0168 48.6013 96.7166 48.4044 96.5836 48.067C96.4525 47.7341 96.5807 47.3113 96.812 47.2092Z" fill="#3F3D56"/>
<path d="M87.0636 53.4445C88.086 52.857 87.8814 51.5675 87.8814 51.5675C87.9071 50.7299 88.5956 50.8485 88.5956 50.8485L88.8462 50.906C88.9626 50.8517 89.0908 50.8278 89.2188 50.8367L89.6 50.9012C88.732 51.1061 88.8033 51.836 88.8033 51.836L88.6817 52.6893L90.9561 51.7671L90.695 51.1483C90.6589 51.0911 90.6281 51.0308 90.603 50.968C90.4183 50.4993 90.7671 50.0331 91.0968 49.9019C91.4265 49.7706 91.8435 50.0442 92.0281 50.5128C92.2103 50.9751 92.0323 51.5623 91.711 51.7042L91.7112 51.7048L91.0271 51.9911L91.022 51.9749L87.0636 53.4445ZM88.2185 51.9451L88.1456 52.7619C88.4031 52.3987 88.5241 51.9555 88.487 51.5111C88.493 51.353 88.5461 51.2003 88.6393 51.0729C88.496 51.1651 88.3808 51.2954 88.3066 51.4494C88.2323 51.6033 88.2018 51.7749 88.2185 51.9451V51.9451Z" fill="#3F3D56"/>
<path d="M104.412 41.3646L104.412 41.364L105.096 41.0777L107.956 39.9604L107.234 39.315C107.093 39.1258 106.884 38.9988 106.652 38.9606C106.42 38.9223 106.182 38.9758 105.988 39.1099L106.212 38.7753C106.212 38.7753 106.633 38.215 107.223 38.8078C107.223 38.8078 107.952 39.8883 109.097 39.6129L105.185 41.2771L105.165 41.2958L105.428 41.9206C105.464 41.9777 105.495 42.0381 105.52 42.1009C105.705 42.5695 105.356 43.0357 105.027 43.1669C104.697 43.2982 104.28 43.0247 104.095 42.556C103.913 42.0938 104.091 41.5065 104.412 41.3646Z" fill="#3F3D56"/>
<path d="M93.9439 37.7079L94.2075 38.3327C94.2436 38.3898 94.2744 38.4502 94.2995 38.513C94.4841 38.9816 94.1354 39.4478 93.8057 39.579C93.476 39.7103 93.059 39.4368 92.8743 38.9681C92.6922 38.5059 92.8702 37.9186 93.1915 37.7767L93.1912 37.7762L93.8754 37.4898L96.2159 36.5753L94.8786 33.1814L95.0768 33.1025L96.4146 36.4976L96.704 36.3846L95.361 32.9762L95.3256 32.9912L92.5745 34.1616L92.5539 34.1803L92.8175 34.805C92.8536 34.8622 92.8844 34.9225 92.9095 34.9854C93.0942 35.454 92.7454 35.9202 92.4157 36.0514C92.086 36.1827 91.669 35.9092 91.4843 35.4405C91.3022 34.9782 91.4802 34.391 91.8015 34.2491L91.8012 34.2485L92.4854 33.9622L95.2814 32.7741L95.2815 32.7741L95.3722 32.7356L96.4069 32.2959L97.8763 36.025L93.9644 37.6892L93.9439 37.7079Z" fill="#3F3D56"/>
<path d="M106.341 18.6096L106.34 18.6087L107.518 18.1157L112.44 16.1924L111.198 15.0814C111.198 15.0814 110.372 13.9289 109.053 14.7282L109.439 14.1523C109.439 14.1523 110.164 13.1878 111.178 14.2083C111.178 14.2083 112.433 16.0684 114.405 15.5942L107.671 18.459L107.636 18.4912L108.09 19.5667C108.152 19.665 108.205 19.7689 108.248 19.8771C108.566 20.6838 107.965 21.4863 107.398 21.7122C106.83 21.9382 106.113 21.4673 105.795 20.6606C105.481 19.8648 105.788 18.8539 106.341 18.6096Z" fill="#3F3D56"/>
<path d="M102.726 34.7656C105.171 33.3608 104.682 30.278 104.682 30.278C104.743 28.2753 106.389 28.5588 106.389 28.5588L106.988 28.6962C107.267 28.5663 107.573 28.5094 107.879 28.5306L108.791 28.6847C106.715 29.1748 106.886 30.9198 106.886 30.9198L106.595 32.9601L112.033 30.7552L111.409 29.2755C111.322 29.1389 111.249 28.9945 111.189 28.8444C110.747 27.7239 111.581 26.6093 112.369 26.2955C113.158 25.9817 114.155 26.6357 114.596 27.7562C115.032 28.8614 114.606 30.2655 113.838 30.6047L113.838 30.606L112.203 31.2908L112.19 31.252L102.726 34.7656ZM105.488 31.1807L105.313 33.1404C106.339 31.7705 106.129 30.1429 106.129 30.1429C106.144 29.7649 106.271 29.4 106.494 29.0952C105.314 29.8046 105.488 31.1807 105.488 31.1807H105.488Z" fill="#3F3D56"/>
</g>
<defs>
<clipPath id="clip0">
<rect width="120" height="105" fill="white" transform="matrix(-1 0 0 1 120 0)"/>
</clipPath>
</defs>
</svg>
